# xmcd
#
# Track frame offsets: 
#        150
#        19516
#        37232
#        59089
#        71245
#        87347
#        103090
#        118775
#        135224
#        150718
#        167826
#        183553
#
# Disc length: 2699 seconds
#
# Revision: 2
# Processed by: cddbd v1.5.2PL0 Copyright (c) Steve Scherf et al.
# Submitted via: ExactAudioCopy v1.1
#
DISCID=aa0a890c
DTITLE=Giovanni Marradi - Quietude: Colours of Music
DYEAR=1997
DGENRE=New Age
TTITLE0=Field of Dreams
TTITLE1=Summer Breeze
TTITLE2=The Colours Of Music
TTITLE3=Children's Play
TTITLE4=Joyful Spring
TTITLE5=Someone Like You
TTITLE6=Hope
TTITLE7=Surrender
TTITLE8=Lonely Nights
TTITLE9=Beyond A Dream
TTITLE10=Tiamo, I Love You
TTITLE11=For The Rest Of My Life
EXTD=YEAR: 1997
EXTT0=
EXTT1=
EXTT2=
EXTT3=
EXTT4=
EXTT5=
EXTT6=
EXTT7=
EXTT8=
EXTT9=
EXTT10=
EXTT11=
PLAYORDER=
